<svg width="1776" height="920" viewBox="0 0 1776 920" fill="none" xmlns="http://www.w3.org/2000/svg">
  <rect width="1776" height="920" fill="#E8E8E8"/>
  <rect x="0" y="0" width="1776" height="920" fill="#F6F6F7"/>
  <rect x="0" y="0" width="1776" height="920" fill="#000" fill-opacity="0.18"/>

  <rect x="0" y="0" width="1776" height="35" fill="#EDEDED"/>
  <g opacity="0.75">
    <rect x="15" y="9" width="26" height="17" rx="4" fill="#D8D8D8"/>
    <rect x="48" y="9" width="26" height="17" rx="4" fill="#D8D8D8"/>
    <rect x="81" y="9" width="26" height="17" rx="4" fill="#D8D8D8"/>
    <rect x="157" y="7" width="66" height="21" rx="6" fill="#D8D8D8"/>
    <rect x="232" y="7" width="43" height="21" rx="6" fill="#D8D8D8"/>
    <circle cx="314" cy="18" r="9" fill="#D8D8D8"/>
    <circle cx="350" cy="18" r="9" fill="#D8D8D8"/>
    <circle cx="398" cy="18" r="9" fill="#D8D8D8"/>
    <circle cx="435" cy="18" r="9" fill="#D8D8D8"/>
  </g>

  <rect x="18" y="72" width="202" height="645" rx="12" fill="#F0F0F1"/>
  <rect x="30" y="84" width="178" height="40" rx="10" fill="#E0E1E4"/>
  <rect x="40" y="95" width="98" height="18" rx="6" fill="#D2D3D7"/>
  <circle cx="184" cy="104" r="8" fill="#D2D3D7"/>
  <rect x="35" y="141" width="170" height="14" rx="5" fill="#DADBE0"/>
  <rect x="35" y="170" width="48" height="26" rx="5" fill="#DADBE0"/>
  <rect x="92" y="170" width="48" height="26" rx="5" fill="#DADBE0"/>
  <rect x="149" y="170" width="20" height="26" rx="5" fill="#DADBE0"/>
  <g opacity="0.8">
    <rect x="34" y="214" width="36" height="16" rx="4" stroke="#D0D2D8" stroke-width="3"/>
    <rect x="79" y="214" width="36" height="16" rx="4" stroke="#D0D2D8" stroke-width="3"/>
    <circle cx="148" cy="222" r="15" stroke="#D0D2D8" stroke-width="3"/>
    <rect x="176" y="214" width="34" height="16" rx="4" stroke="#D0D2D8" stroke-width="3"/>
    <circle cx="52" cy="264" r="15" stroke="#D0D2D8" stroke-width="3"/>
    <rect x="79" y="248" width="36" height="30" rx="4" stroke="#D0D2D8" stroke-width="3"/>
    <circle cx="148" cy="263" r="15" stroke="#D0D2D8" stroke-width="3"/>
    <path d="M176 248H210V278H176V248Z" stroke="#D0D2D8" stroke-width="3"/>
    <path d="M34 327L52 309L70 327L52 345L34 327Z" stroke="#D0D2D8" stroke-width="3"/>
    <path d="M84 311H110L101 342H75L84 311Z" stroke="#D0D2D8" stroke-width="3"/>
    <path d="M132 312C144 308 159 309 166 321C159 333 144 334 132 330C127 323 127 318 132 312Z" stroke="#D0D2D8" stroke-width="3"/>
    <path d="M183 310L209 327L183 344V310Z" stroke="#D0D2D8" stroke-width="3"/>
    <rect x="36" y="368" width="32" height="28" rx="7" stroke="#D0D2D8" stroke-width="3"/>
    <path d="M79 381C89 372 104 372 114 381C104 390 89 390 79 381Z" stroke="#D0D2D8" stroke-width="3"/>
    <path d="M128 373H154L165 381L154 389H128V373Z" stroke="#D0D2D8" stroke-width="3"/>
    <rect x="176" y="367" width="34" height="31" rx="4" stroke="#D0D2D8" stroke-width="3"/>
  </g>
  <rect x="68" y="647" width="98" height="32" rx="6" fill="#86B4D9"/>
  <text x="117" y="668" text-anchor="middle" fill="#2C3E50" font-size="15" font-family="-apple-system, BlinkMacSystemFont, 'PingFang SC', 'Microsoft YaHei', sans-serif" font-weight="700">更多图形</text>

  <rect x="1211" y="16" width="547" height="888" fill="#F8F8F8"/>
  <rect x="1244" y="36" width="10" height="10" rx="2" fill="#111"/>
  <rect x="1258" y="36" width="10" height="10" rx="2" fill="#111"/>
  <rect x="1244" y="50" width="10" height="10" rx="2" fill="#111"/>
  <rect x="1258" y="50" width="10" height="10" rx="2" fill="#111"/>
  <text x="1278" y="50" fill="#202124" font-size="17" font-family="-apple-system, BlinkMacSystemFont, 'PingFang SC', 'Microsoft YaHei', sans-serif" font-weight="700">Next AI Draw.io</text>
  <circle cx="1684" cy="44" r="8" fill="#D8D8D8"/>
  <circle cx="1722" cy="44" r="8" fill="#D8D8D8"/>
  <rect x="1752" y="35" width="12" height="18" rx="3" fill="#D8D8D8"/>
  <rect x="1232" y="135" width="506" height="640" rx="16" fill="#EEF1F5"/>
  <rect x="1270" y="263" width="443" height="14" rx="7" fill="#DDE2EA"/>
  <rect x="1270" y="305" width="443" height="14" rx="7" fill="#DDE2EA"/>
  <rect x="1270" y="347" width="443" height="14" rx="7" fill="#DDE2EA"/>
  <rect x="1476" y="840" width="102" height="34" rx="17" fill="#D0D4DB"/>
  <text x="1527" y="862" text-anchor="middle" fill="#5B616A" font-size="15" font-family="-apple-system, BlinkMacSystemFont, 'PingFang SC', 'Microsoft YaHei', sans-serif" font-weight="700">gpt-4.7</text>
  <rect x="1677" y="838" width="70" height="38" rx="19" fill="#4C4C4C"/>
  <text x="1712" y="862" text-anchor="middle" fill="white" font-size="15" font-family="-apple-system, BlinkMacSystemFont, 'PingFang SC', 'Microsoft YaHei', sans-serif" font-weight="700">发送</text>

  <rect x="441" y="97" width="897" height="746" rx="18" fill="white"/>
  <rect x="441.5" y="97.5" width="896" height="745" rx="17.5" stroke="#E2E5EA"/>
  <text x="514" y="147" fill="#21242C" font-size="20" font-family="-apple-system, BlinkMacSystemFont, 'PingFang SC', 'Microsoft YaHei', sans-serif" font-weight="700">AI 模型配置</text>
  <text x="497" y="189" fill="#7A7F87" font-size="14" font-family="-apple-system, BlinkMacSystemFont, 'PingFang SC', 'Microsoft YaHei', sans-serif">配置多个 AI 提供商和模型</text>
  <circle cx="516" cy="139" r="17" fill="#F2F4F8"/>
  <path d="M506 133H522M506 145H517M509 129H519C521 129 523 131 523 133V145C523 147 521 149 519 149H509C507 149 505 147 505 145V133C505 131 507 129 509 129Z" stroke="#59606C" stroke-width="1.6" stroke-linecap="round"/>
  <path d="M1308 122L1317 131M1317 122L1308 131" stroke="#9AA0AA" stroke-width="1.6" stroke-linecap="round"/>

  <line x1="441" y1="209.5" x2="1338" y2="209.5" stroke="#ECEEF2"/>
  <line x1="682.5" y1="210" x2="682.5" y2="839" stroke="#ECEEF2"/>

  <text x="458" y="236" fill="#535965" font-size="13" font-family="-apple-system, BlinkMacSystemFont, 'PingFang SC', 'Microsoft YaHei', sans-serif" font-weight="600">提供商</text>
  <rect x="451" y="260" width="225" height="51" rx="15" fill="#FFFFFF" stroke="#E2E5EA"/>
  <rect x="463" y="271" width="199" height="29" rx="11" fill="#FFFFFF" stroke="#D7DCE4"/>
  <circle cx="480" cy="285" r="10" fill="#EFF2F6"/>
  <path d="M480 277C483 277 485.5 279.5 485.5 282.5C485.5 285.5 483 288 480 288C477 288 474.5 285.5 474.5 282.5C474.5 279.5 477 277 480 277Z" fill="#6B7280"/>
  <text x="508" y="291" fill="#20242B" font-size="15" font-family="-apple-system, BlinkMacSystemFont, 'PingFang SC', 'Microsoft YaHei', sans-serif">HubTo</text>
  <path d="M653 281L658 286L653 291" stroke="#9DA3AE" stroke-width="1.6" stroke-linecap="round" stroke-linejoin="round"/>

  <rect x="451" y="752" width="231" height="36" rx="14" fill="#FFFFFF" stroke="#E2E5EA"/>
  <circle cx="477" cy="770" r="11" fill="#FFFFFF" stroke="#D7DCE4"/>
  <path d="M477 765V775M472 770H482" stroke="#717784" stroke-width="1.6" stroke-linecap="round"/>
  <text x="535" y="776" fill="#6D7380" font-size="15" font-family="-apple-system, BlinkMacSystemFont, 'PingFang SC', 'Microsoft YaHei', sans-serif">添加提供商</text>
  <path d="M657 766L662 771L667 766" stroke="#9DA3AE" stroke-width="1.6" stroke-linecap="round" stroke-linejoin="round"/>
  <rect x="466" y="814" width="38" height="18" rx="9" fill="#E6E9EF"/>
  <circle cx="475" cy="823" r="8" fill="#F8FAFD"/>
  <text x="510" y="828" fill="#8A909B" font-size="13" font-family="-apple-system, BlinkMacSystemFont, 'PingFang SC', 'Microsoft YaHei', sans-serif">显示未验证的模型</text>

  <rect x="706" y="233" width="48" height="48" rx="14" fill="#F2F4F8"/>
  <path d="M730 243C735 243 739 247 739 252V257C739 262 735 266 730 266C725 266 721 262 721 257V252C721 247 725 243 730 243Z" fill="#111827"/>
  <path d="M730 246C726.5 246 723.6 248.8 723.6 252.3C723.6 255.8 726.5 258.6 730 258.6C733.5 258.6 736.4 255.8 736.4 252.3C736.4 248.8 733.5 246 730 246Z" fill="#F5F5F5"/>
  <text x="767" y="257" fill="#21242C" font-size="18" font-family="-apple-system, BlinkMacSystemFont, 'PingFang SC', 'Microsoft YaHei', sans-serif" font-weight="700">OpenAI</text>
  <text x="767" y="280" fill="#7A7F87" font-size="14" font-family="-apple-system, BlinkMacSystemFont, 'PingFang SC', 'Microsoft YaHei', sans-serif">已配置 1 个模型</text>
  <g transform="translate(1194 250)">
    <path d="M6 2H12M6 5H12M6 8H12M6 11H12" stroke="#B13E47" stroke-width="1.4" stroke-linecap="round"/>
    <path d="M4 5V13C4 14 5 15 6 15H12C13 15 14 14 14 13V5M5 5L6 2H12L13 5" stroke="#B13E47" stroke-width="1.4" stroke-linecap="round" stroke-linejoin="round"/>
  </g>
  <text x="1223" y="264" fill="#B13E47" font-size="14" font-family="-apple-system, BlinkMacSystemFont, 'PingFang SC', 'Microsoft YaHei', sans-serif" font-weight="600">删除提供商</text>

  <path d="M706 320H718M706 326H718M710 314V332" stroke="#6B7280" stroke-width="1.4" stroke-linecap="round"/>
  <text x="729" y="325" fill="#535965" font-size="13" font-family="-apple-system, BlinkMacSystemFont, 'PingFang SC', 'Microsoft YaHei', sans-serif" font-weight="600">配置</text>

  <rect x="707" y="345" width="595" height="260" rx="16" fill="#F5F7FA" stroke="#E2E7EE"/>
  <g>
    <path d="M731 374L738 381M738 381L745 388" stroke="#69707C" stroke-width="1.4" stroke-linecap="round"/>
    <circle cx="734" cy="377" r="6.5" stroke="#69707C" stroke-width="1.4"/>
    <text x="752" y="381" fill="#2D323A" font-size="14" font-family="-apple-system, BlinkMacSystemFont, 'PingFang SC', 'Microsoft YaHei', sans-serif" font-weight="600">显示名称</text>
    <rect x="728" y="391" width="552" height="35" rx="15" fill="#FFFFFF" stroke="#DCE2EB"/>
    <text x="742" y="414" fill="#2E333B" font-size="15" font-family="-apple-system, BlinkMacSystemFont, 'PingFang SC', 'Microsoft YaHei', sans-serif">HubTo</text>
  </g>
  <g>
    <path d="M732 446C734 450 739 451 742 448C744 445 742 440 738 440C734 440 732 443 732 446Z" stroke="#69707C" stroke-width="1.4"/>
    <path d="M742 446H748" stroke="#69707C" stroke-width="1.4" stroke-linecap="round"/>
    <text x="757" y="456" fill="#2D323A" font-size="14" font-family="-apple-system, BlinkMacSystemFont, 'PingFang SC', 'Microsoft YaHei', sans-serif" font-weight="600">API 密钥</text>
    <rect x="728" y="471" width="491" height="35" rx="15" fill="#FFFFFF" stroke="#DCE2EB"/>
    <text x="742" y="494" fill="#2E333B" font-size="18" letter-spacing="1.2" font-family="-apple-system, BlinkMacSystemFont, 'PingFang SC', 'Microsoft YaHei', sans-serif">••••••••••••••••••••••••••••••••••••••••••</text>
    <circle cx="1192" cy="488" r="8" stroke="#848B96" stroke-width="1.2"/>
    <circle cx="1192" cy="488" r="2" fill="#848B96"/>
    <rect x="1221" y="470" width="58" height="37" rx="12" fill="#454A54"/>
    <text x="1250" y="494" text-anchor="middle" fill="white" font-size="15" font-family="-apple-system, BlinkMacSystemFont, 'PingFang SC', 'Microsoft YaHei', sans-serif" font-weight="700">测试</text>
  </g>
  <g>
    <path d="M731 534C731 531 734 528 737 528H741C744 528 747 531 747 534C747 537 744 540 741 540H737C734 540 731 537 731 534Z" stroke="#69707C" stroke-width="1.4"/>
    <path d="M739 534H749" stroke="#69707C" stroke-width="1.4" stroke-linecap="round"/>
    <text x="757" y="540" fill="#2D323A" font-size="14" font-family="-apple-system, BlinkMacSystemFont, 'PingFang SC', 'Microsoft YaHei', sans-serif" font-weight="600">基础 URL（可选，例如 https://api.openai.com/v1）</text>
    <rect x="728" y="551" width="552" height="35" rx="15" fill="#FFFFFF" stroke="#DCE2EB"/>
    <text x="742" y="575" fill="#2E333B" font-size="14" font-family="ui-monospace, SFMono-Regular, Menlo, Monaco, Consolas, 'Liberation Mono', 'Courier New', monospace">https://api.hubto.ai/v1</text>
  </g>

  <g>
    <path d="M708 655C712 655 715 652 715 648C715 644 712 641 708 641C704 641 701 644 701 648C701 652 704 655 708 655Z" stroke="#69707C" stroke-width="1.4"/>
    <path d="M719 640L725 646M725 646L719 652" stroke="#69707C" stroke-width="1.4" stroke-linecap="round"/>
    <text x="732" y="659" fill="#2D323A" font-size="14" font-family="-apple-system, BlinkMacSystemFont, 'PingFang SC', 'Microsoft YaHei', sans-serif" font-weight="600">模型</text>
    <rect x="961" y="641" width="175" height="31" rx="12" fill="#FFFFFF" stroke="#DCE2EB"/>
    <text x="984" y="662" fill="#9AA0AA" font-size="14" font-family="-apple-system, BlinkMacSystemFont, 'PingFang SC', 'Microsoft YaHei', sans-serif">自定义模型 ID ...</text>
    <rect x="1143" y="641" width="38" height="31" rx="12" fill="#FFFFFF" stroke="#DCE2EB"/>
    <path d="M1162 650V663M1155 656H1168" stroke="#9AA0AA" stroke-width="1.6" stroke-linecap="round"/>
    <rect x="1188" y="641" width="112" height="34" rx="13" fill="#FFFFFF" stroke="#DCE2EB"/>
    <text x="1214" y="663" fill="#6B7280" font-size="14" font-family="-apple-system, BlinkMacSystemFont, 'PingFang SC', 'Microsoft YaHei', sans-serif">推荐</text>
    <path d="M1278 654L1283 659L1288 654" stroke="#9DA3AE" stroke-width="1.5" stroke-linecap="round" stroke-linejoin="round"/>
  </g>

  <rect x="707" y="692" width="595" height="114" rx="17" fill="#FFFFFF" stroke="#E2E7EE"/>
  <circle cx="736" cy="720" r="16" fill="#E6F5DF"/>
  <path d="M730 720L734 724L742 715" stroke="#61B05A" stroke-width="2.1" stroke-linecap="round" stroke-linejoin="round"/>
  <text x="777" y="726" fill="#2C3139" font-size="18" font-family="ui-monospace, SFMono-Regular, Menlo, Monaco, Consolas, 'Liberation Mono', 'Courier New', monospace">gpt-5.2</text>
  <path d="M1271 713L1280 722M1280 713L1271 722" stroke="#6B7280" stroke-width="1.6" stroke-linecap="round"/>

  <text x="1132" y="824" fill="#7D838F" font-size="13" font-family="-apple-system, BlinkMacSystemFont, 'PingFang SC', 'Microsoft YaHei', sans-serif">API 密钥存储在您的浏览器本地</text>
  <path d="M1115 813C1115 810 1117 808 1120 808H1124C1127 808 1129 810 1129 813V817C1129 820 1127 822 1124 822H1120C1117 822 1115 820 1115 817V813Z" stroke="#7D838F" stroke-width="1.2"/>
</svg>
